<mxfile host="app.diagrams.net" modified="2022-12-08T10:13:21.255Z" agent="5.0 (Windows NT 10.0; Win64; x64) AppleWebKit/537.36 (KHTML, like Gecko) Chrome/108.0.0.0 Safari/537.36" etag="LzMkpNUYNPFKekgUErrc" version="20.6.0" type="github">
  <diagram id="L5aYX6kbzt17_Y6ruYPm" name="Stránka-1">
    <mxGraphModel dx="2532" dy="793" grid="1" gridSize="10" guides="1" tooltips="1" connect="1" arrows="1" fold="1" page="1" pageScale="1" pageWidth="827" pageHeight="1169" math="0" shadow="0">
      <root>
        <mxCell id="0" />
        <mxCell id="1" parent="0" />
        <mxCell id="regOmah-uOrhAEvhPZx0-2" value="Zákazník" style="swimlane;fontStyle=0;align=center;verticalAlign=top;childLayout=stackLayout;horizontal=1;startSize=26;horizontalStack=0;resizeParent=1;resizeLast=0;collapsible=1;marginBottom=0;rounded=0;shadow=0;strokeWidth=1;" parent="1" vertex="1">
          <mxGeometry x="-310" y="442" width="160" height="141" as="geometry">
            <mxRectangle x="230" y="140" width="160" height="26" as="alternateBounds" />
          </mxGeometry>
        </mxCell>
        <mxCell id="regOmah-uOrhAEvhPZx0-3" value="Jméno" style="text;align=left;verticalAlign=top;spacingLeft=4;spacingRight=4;overflow=hidden;rotatable=0;points=[[0,0.5],[1,0.5]];portConstraint=eastwest;" parent="regOmah-uOrhAEvhPZx0-2" vertex="1">
          <mxGeometry y="26" width="160" height="26" as="geometry" />
        </mxCell>
        <mxCell id="regOmah-uOrhAEvhPZx0-4" value="Příjmení" style="text;align=left;verticalAlign=top;spacingLeft=4;spacingRight=4;overflow=hidden;rotatable=0;points=[[0,0.5],[1,0.5]];portConstraint=eastwest;rounded=0;shadow=0;html=0;" parent="regOmah-uOrhAEvhPZx0-2" vertex="1">
          <mxGeometry y="52" width="160" height="26" as="geometry" />
        </mxCell>
        <mxCell id="regOmah-uOrhAEvhPZx0-5" value="Telefon" style="text;align=left;verticalAlign=top;spacingLeft=4;spacingRight=4;overflow=hidden;rotatable=0;points=[[0,0.5],[1,0.5]];portConstraint=eastwest;rounded=0;shadow=0;html=0;" parent="regOmah-uOrhAEvhPZx0-2" vertex="1">
          <mxGeometry y="78" width="160" height="26" as="geometry" />
        </mxCell>
        <mxCell id="regOmah-uOrhAEvhPZx0-6" value="Email" style="text;align=left;verticalAlign=top;spacingLeft=4;spacingRight=4;overflow=hidden;rotatable=0;points=[[0,0.5],[1,0.5]];portConstraint=eastwest;rounded=0;shadow=0;html=0;" parent="regOmah-uOrhAEvhPZx0-2" vertex="1">
          <mxGeometry y="104" width="160" height="26" as="geometry" />
        </mxCell>
        <mxCell id="regOmah-uOrhAEvhPZx0-7" value="Adresa" style="swimlane;fontStyle=0;align=center;verticalAlign=top;childLayout=stackLayout;horizontal=1;startSize=26;horizontalStack=0;resizeParent=1;resizeLast=0;collapsible=1;marginBottom=0;rounded=0;shadow=0;strokeWidth=1;" parent="1" vertex="1">
          <mxGeometry x="-157.23" y="716" width="207.23" height="184" as="geometry">
            <mxRectangle x="550" y="140" width="160" height="26" as="alternateBounds" />
          </mxGeometry>
        </mxCell>
        <mxCell id="regOmah-uOrhAEvhPZx0-8" value="Ulice" style="text;align=left;verticalAlign=top;spacingLeft=4;spacingRight=4;overflow=hidden;rotatable=0;points=[[0,0.5],[1,0.5]];portConstraint=eastwest;rounded=0;shadow=0;html=0;" parent="regOmah-uOrhAEvhPZx0-7" vertex="1">
          <mxGeometry y="26" width="207.23" height="26" as="geometry" />
        </mxCell>
        <mxCell id="regOmah-uOrhAEvhPZx0-9" value="ČP" style="text;align=left;verticalAlign=top;spacingLeft=4;spacingRight=4;overflow=hidden;rotatable=0;points=[[0,0.5],[1,0.5]];portConstraint=eastwest;rounded=0;shadow=0;html=0;" parent="regOmah-uOrhAEvhPZx0-7" vertex="1">
          <mxGeometry y="52" width="207.23" height="26" as="geometry" />
        </mxCell>
        <mxCell id="regOmah-uOrhAEvhPZx0-10" value="Město" style="text;align=left;verticalAlign=top;spacingLeft=4;spacingRight=4;overflow=hidden;rotatable=0;points=[[0,0.5],[1,0.5]];portConstraint=eastwest;rounded=0;shadow=0;html=0;" parent="regOmah-uOrhAEvhPZx0-7" vertex="1">
          <mxGeometry y="78" width="207.23" height="26" as="geometry" />
        </mxCell>
        <mxCell id="regOmah-uOrhAEvhPZx0-11" value="PSČ" style="text;align=left;verticalAlign=top;spacingLeft=4;spacingRight=4;overflow=hidden;rotatable=0;points=[[0,0.5],[1,0.5]];portConstraint=eastwest;rounded=0;shadow=0;html=0;" parent="regOmah-uOrhAEvhPZx0-7" vertex="1">
          <mxGeometry y="104" width="207.23" height="26" as="geometry" />
        </mxCell>
        <mxCell id="regOmah-uOrhAEvhPZx0-12" value="Země" style="text;align=left;verticalAlign=top;spacingLeft=4;spacingRight=4;overflow=hidden;rotatable=0;points=[[0,0.5],[1,0.5]];portConstraint=eastwest;rounded=0;shadow=0;html=0;" parent="regOmah-uOrhAEvhPZx0-7" vertex="1">
          <mxGeometry y="130" width="207.23" height="26" as="geometry" />
        </mxCell>
        <mxCell id="regOmah-uOrhAEvhPZx0-123" value="Typ adresy (Primární, pobočka, jiné)&#xa;" style="text;align=left;verticalAlign=top;spacingLeft=4;spacingRight=4;overflow=hidden;rotatable=0;points=[[0,0.5],[1,0.5]];portConstraint=eastwest;rounded=0;shadow=0;html=0;" parent="regOmah-uOrhAEvhPZx0-7" vertex="1">
          <mxGeometry y="156" width="207.23" height="26" as="geometry" />
        </mxCell>
        <mxCell id="regOmah-uOrhAEvhPZx0-13" value="" style="endArrow=none;shadow=0;strokeWidth=1;rounded=0;endFill=0;edgeStyle=elbowEdgeStyle;elbow=vertical;" parent="1" source="regOmah-uOrhAEvhPZx0-2" target="regOmah-uOrhAEvhPZx0-7" edge="1">
          <mxGeometry x="0.5" y="41" relative="1" as="geometry">
            <mxPoint x="-290" y="574" as="sourcePoint" />
            <mxPoint x="-130" y="574" as="targetPoint" />
            <mxPoint x="-40" y="32" as="offset" />
            <Array as="points">
              <mxPoint x="-230" y="821" />
              <mxPoint x="-230" y="908" />
            </Array>
          </mxGeometry>
        </mxCell>
        <mxCell id="regOmah-uOrhAEvhPZx0-14" value="1,n" style="resizable=0;align=right;verticalAlign=bottom;labelBackgroundColor=none;fontSize=12;" parent="regOmah-uOrhAEvhPZx0-13" connectable="0" vertex="1">
          <mxGeometry x="1" relative="1" as="geometry">
            <mxPoint x="-8" y="-3" as="offset" />
          </mxGeometry>
        </mxCell>
        <mxCell id="regOmah-uOrhAEvhPZx0-15" value="Má" style="text;html=1;resizable=0;points=[];;align=center;verticalAlign=middle;labelBackgroundColor=none;rounded=0;shadow=0;strokeWidth=1;fontSize=12;" parent="regOmah-uOrhAEvhPZx0-13" vertex="1" connectable="0">
          <mxGeometry x="0.5" y="49" relative="1" as="geometry">
            <mxPoint x="-69" y="-76" as="offset" />
          </mxGeometry>
        </mxCell>
        <mxCell id="regOmah-uOrhAEvhPZx0-153" style="edgeStyle=orthogonalEdgeStyle;rounded=0;jumpSize=6;orthogonalLoop=1;jettySize=auto;html=1;strokeWidth=1;startArrow=none;startFill=0;endArrow=diamond;endFill=0;startSize=17;endSize=21;" parent="1" source="regOmah-uOrhAEvhPZx0-16" target="regOmah-uOrhAEvhPZx0-94" edge="1">
          <mxGeometry relative="1" as="geometry">
            <mxPoint x="990" y="330.0000000000001" as="targetPoint" />
          </mxGeometry>
        </mxCell>
        <mxCell id="regOmah-uOrhAEvhPZx0-16" value="Balíček" style="swimlane;fontStyle=0;align=center;verticalAlign=top;childLayout=stackLayout;horizontal=1;startSize=26;horizontalStack=0;resizeParent=1;resizeLast=0;collapsible=1;marginBottom=0;rounded=0;shadow=0;strokeWidth=1;" parent="1" vertex="1">
          <mxGeometry x="576" y="220" width="160" height="220" as="geometry">
            <mxRectangle x="550" y="140" width="160" height="26" as="alternateBounds" />
          </mxGeometry>
        </mxCell>
        <mxCell id="regOmah-uOrhAEvhPZx0-17" value="Výška" style="text;align=left;verticalAlign=top;spacingLeft=4;spacingRight=4;overflow=hidden;rotatable=0;points=[[0,0.5],[1,0.5]];portConstraint=eastwest;" parent="regOmah-uOrhAEvhPZx0-16" vertex="1">
          <mxGeometry y="26" width="160" height="26" as="geometry" />
        </mxCell>
        <mxCell id="regOmah-uOrhAEvhPZx0-18" value="Šířka" style="text;align=left;verticalAlign=top;spacingLeft=4;spacingRight=4;overflow=hidden;rotatable=0;points=[[0,0.5],[1,0.5]];portConstraint=eastwest;" parent="regOmah-uOrhAEvhPZx0-16" vertex="1">
          <mxGeometry y="52" width="160" height="26" as="geometry" />
        </mxCell>
        <mxCell id="regOmah-uOrhAEvhPZx0-19" value="Hloubka" style="text;align=left;verticalAlign=top;spacingLeft=4;spacingRight=4;overflow=hidden;rotatable=0;points=[[0,0.5],[1,0.5]];portConstraint=eastwest;" parent="regOmah-uOrhAEvhPZx0-16" vertex="1">
          <mxGeometry y="78" width="160" height="26" as="geometry" />
        </mxCell>
        <mxCell id="regOmah-uOrhAEvhPZx0-20" value="Váha" style="text;align=left;verticalAlign=top;spacingLeft=4;spacingRight=4;overflow=hidden;rotatable=0;points=[[0,0.5],[1,0.5]];portConstraint=eastwest;rounded=0;shadow=0;html=0;" parent="regOmah-uOrhAEvhPZx0-16" vertex="1">
          <mxGeometry y="104" width="160" height="26" as="geometry" />
        </mxCell>
        <mxCell id="regOmah-uOrhAEvhPZx0-25" value="Cena pojištění" style="text;align=left;verticalAlign=top;spacingLeft=4;spacingRight=4;overflow=hidden;rotatable=0;points=[[0,0.5],[1,0.5]];portConstraint=eastwest;" parent="regOmah-uOrhAEvhPZx0-16" vertex="1">
          <mxGeometry y="130" width="160" height="26" as="geometry" />
        </mxCell>
        <mxCell id="regOmah-uOrhAEvhPZx0-26" value="Cena přepravy" style="text;align=left;verticalAlign=top;spacingLeft=4;spacingRight=4;overflow=hidden;rotatable=0;points=[[0,0.5],[1,0.5]];portConstraint=eastwest;rounded=0;shadow=0;html=0;" parent="regOmah-uOrhAEvhPZx0-16" vertex="1">
          <mxGeometry y="156" width="160" height="26" as="geometry" />
        </mxCell>
        <mxCell id="regOmah-uOrhAEvhPZx0-27" value="Čas doručení" style="text;align=left;verticalAlign=top;spacingLeft=4;spacingRight=4;overflow=hidden;rotatable=0;points=[[0,0.5],[1,0.5]];portConstraint=eastwest;" parent="regOmah-uOrhAEvhPZx0-16" vertex="1">
          <mxGeometry y="182" width="160" height="26" as="geometry" />
        </mxCell>
        <mxCell id="regOmah-uOrhAEvhPZx0-29" value="Pobočka" style="swimlane;fontStyle=0;align=center;verticalAlign=top;childLayout=stackLayout;horizontal=1;startSize=26;horizontalStack=0;resizeParent=1;resizeLast=0;collapsible=1;marginBottom=0;rounded=0;shadow=0;strokeWidth=1;" parent="1" vertex="1">
          <mxGeometry x="268" y="426" width="160" height="190" as="geometry">
            <mxRectangle x="268" y="426" width="160" height="26" as="alternateBounds" />
          </mxGeometry>
        </mxCell>
        <mxCell id="regOmah-uOrhAEvhPZx0-30" value="Číslo pobočky" style="text;align=left;verticalAlign=top;spacingLeft=4;spacingRight=4;overflow=hidden;rotatable=0;points=[[0,0.5],[1,0.5]];portConstraint=eastwest;" parent="regOmah-uOrhAEvhPZx0-29" vertex="1">
          <mxGeometry y="26" width="160" height="26" as="geometry" />
        </mxCell>
        <mxCell id="regOmah-uOrhAEvhPZx0-33" value="Počet zaměstnanců" style="text;align=left;verticalAlign=top;spacingLeft=4;spacingRight=4;overflow=hidden;rotatable=0;points=[[0,0.5],[1,0.5]];portConstraint=eastwest;rounded=0;shadow=0;html=0;" parent="regOmah-uOrhAEvhPZx0-29" vertex="1">
          <mxGeometry y="52" width="160" height="26" as="geometry" />
        </mxCell>
        <mxCell id="regOmah-uOrhAEvhPZx0-34" value="Kapacita skladu" style="text;align=left;verticalAlign=top;spacingLeft=4;spacingRight=4;overflow=hidden;rotatable=0;points=[[0,0.5],[1,0.5]];portConstraint=eastwest;rounded=0;shadow=0;html=0;" parent="regOmah-uOrhAEvhPZx0-29" vertex="1">
          <mxGeometry y="78" width="160" height="26" as="geometry" />
        </mxCell>
        <mxCell id="regOmah-uOrhAEvhPZx0-35" value="Zaměstnanec" style="swimlane;fontStyle=0;align=center;verticalAlign=top;childLayout=stackLayout;horizontal=1;startSize=26;horizontalStack=0;resizeParent=1;resizeLast=0;collapsible=1;marginBottom=0;rounded=0;shadow=0;strokeWidth=1;" parent="1" vertex="1">
          <mxGeometry x="410" y="644.5" width="160" height="265.5" as="geometry">
            <mxRectangle x="550" y="140" width="160" height="26" as="alternateBounds" />
          </mxGeometry>
        </mxCell>
        <mxCell id="regOmah-uOrhAEvhPZx0-36" value="Jméno" style="text;align=left;verticalAlign=top;spacingLeft=4;spacingRight=4;overflow=hidden;rotatable=0;points=[[0,0.5],[1,0.5]];portConstraint=eastwest;" parent="regOmah-uOrhAEvhPZx0-35" vertex="1">
          <mxGeometry y="26" width="160" height="26" as="geometry" />
        </mxCell>
        <mxCell id="regOmah-uOrhAEvhPZx0-37" value="Příjmení" style="text;align=left;verticalAlign=top;spacingLeft=4;spacingRight=4;overflow=hidden;rotatable=0;points=[[0,0.5],[1,0.5]];portConstraint=eastwest;" parent="regOmah-uOrhAEvhPZx0-35" vertex="1">
          <mxGeometry y="52" width="160" height="26" as="geometry" />
        </mxCell>
        <mxCell id="regOmah-uOrhAEvhPZx0-38" value="Telefon" style="text;align=left;verticalAlign=top;spacingLeft=4;spacingRight=4;overflow=hidden;rotatable=0;points=[[0,0.5],[1,0.5]];portConstraint=eastwest;rounded=0;shadow=0;html=0;" parent="regOmah-uOrhAEvhPZx0-35" vertex="1">
          <mxGeometry y="78" width="160" height="26" as="geometry" />
        </mxCell>
        <mxCell id="regOmah-uOrhAEvhPZx0-39" value="Zaměstnanecké číslo" style="text;align=left;verticalAlign=top;spacingLeft=4;spacingRight=4;overflow=hidden;rotatable=0;points=[[0,0.5],[1,0.5]];portConstraint=eastwest;rounded=0;shadow=0;html=0;" parent="regOmah-uOrhAEvhPZx0-35" vertex="1">
          <mxGeometry y="104" width="160" height="26" as="geometry" />
        </mxCell>
        <mxCell id="regOmah-uOrhAEvhPZx0-40" value="Email" style="text;align=left;verticalAlign=top;spacingLeft=4;spacingRight=4;overflow=hidden;rotatable=0;points=[[0,0.5],[1,0.5]];portConstraint=eastwest;rounded=0;shadow=0;html=0;" parent="regOmah-uOrhAEvhPZx0-35" vertex="1">
          <mxGeometry y="130" width="160" height="26" as="geometry" />
        </mxCell>
        <mxCell id="regOmah-uOrhAEvhPZx0-41" value="Zdravotní stav" style="text;align=left;verticalAlign=top;spacingLeft=4;spacingRight=4;overflow=hidden;rotatable=0;points=[[0,0.5],[1,0.5]];portConstraint=eastwest;rounded=0;shadow=0;html=0;" parent="regOmah-uOrhAEvhPZx0-35" vertex="1">
          <mxGeometry y="156" width="160" height="26" as="geometry" />
        </mxCell>
        <mxCell id="regOmah-uOrhAEvhPZx0-42" value="Výpis z trestního rejstříku" style="text;align=left;verticalAlign=top;spacingLeft=4;spacingRight=4;overflow=hidden;rotatable=0;points=[[0,0.5],[1,0.5]];portConstraint=eastwest;rounded=0;shadow=0;html=0;" parent="regOmah-uOrhAEvhPZx0-35" vertex="1">
          <mxGeometry y="182" width="160" height="26" as="geometry" />
        </mxCell>
        <mxCell id="regOmah-uOrhAEvhPZx0-43" value="Vzdělání" style="text;align=left;verticalAlign=top;spacingLeft=4;spacingRight=4;overflow=hidden;rotatable=0;points=[[0,0.5],[1,0.5]];portConstraint=eastwest;rounded=0;shadow=0;html=0;" parent="regOmah-uOrhAEvhPZx0-35" vertex="1">
          <mxGeometry y="208" width="160" height="26" as="geometry" />
        </mxCell>
        <mxCell id="regOmah-uOrhAEvhPZx0-44" value="Pracovní smlouva" style="text;align=left;verticalAlign=top;spacingLeft=4;spacingRight=4;overflow=hidden;rotatable=0;points=[[0,0.5],[1,0.5]];portConstraint=eastwest;rounded=0;shadow=0;html=0;" parent="regOmah-uOrhAEvhPZx0-35" vertex="1">
          <mxGeometry y="234" width="160" height="26" as="geometry" />
        </mxCell>
        <mxCell id="regOmah-uOrhAEvhPZx0-51" value="0, n" style="resizable=0;align=right;verticalAlign=bottom;labelBackgroundColor=none;fontSize=12;" parent="1" connectable="0" vertex="1">
          <mxGeometry x="760" y="300" as="geometry">
            <mxPoint x="4" y="23" as="offset" />
          </mxGeometry>
        </mxCell>
        <mxCell id="regOmah-uOrhAEvhPZx0-52" style="edgeStyle=orthogonalEdgeStyle;rounded=0;orthogonalLoop=1;jettySize=auto;html=1;endArrow=none;endFill=0;" parent="1" source="regOmah-uOrhAEvhPZx0-5" edge="1">
          <mxGeometry relative="1" as="geometry">
            <mxPoint x="-15" y="533" as="targetPoint" />
          </mxGeometry>
        </mxCell>
        <mxCell id="regOmah-uOrhAEvhPZx0-53" value="" style="endArrow=none;html=1;rounded=0;entryX=0.006;entryY=-0.085;entryDx=0;entryDy=0;entryPerimeter=0;endFill=0;" parent="1" edge="1">
          <mxGeometry width="50" height="50" relative="1" as="geometry">
            <mxPoint x="347" y="615" as="sourcePoint" />
            <mxPoint x="407.96000000000004" y="754.79" as="targetPoint" />
            <Array as="points">
              <mxPoint x="347" y="755" />
            </Array>
          </mxGeometry>
        </mxCell>
        <mxCell id="regOmah-uOrhAEvhPZx0-54" value="Řidič" style="swimlane;fontStyle=0;align=center;verticalAlign=top;childLayout=stackLayout;horizontal=1;startSize=26;horizontalStack=0;resizeParent=1;resizeLast=0;collapsible=1;marginBottom=0;rounded=0;shadow=0;strokeWidth=1;" parent="1" vertex="1">
          <mxGeometry x="670" y="644.5" width="160" height="105.5" as="geometry">
            <mxRectangle x="340" y="380" width="170" height="26" as="alternateBounds" />
          </mxGeometry>
        </mxCell>
        <mxCell id="regOmah-uOrhAEvhPZx0-55" value="Číslo vozu" style="text;align=left;verticalAlign=top;spacingLeft=4;spacingRight=4;overflow=hidden;rotatable=0;points=[[0,0.5],[1,0.5]];portConstraint=eastwest;" parent="regOmah-uOrhAEvhPZx0-54" vertex="1">
          <mxGeometry y="26" width="160" height="26" as="geometry" />
        </mxCell>
        <mxCell id="regOmah-uOrhAEvhPZx0-56" value="Řidičské oprávnění" style="text;align=left;verticalAlign=top;spacingLeft=4;spacingRight=4;overflow=hidden;rotatable=0;points=[[0,0.5],[1,0.5]];portConstraint=eastwest;" parent="regOmah-uOrhAEvhPZx0-54" vertex="1">
          <mxGeometry y="52" width="160" height="26" as="geometry" />
        </mxCell>
        <mxCell id="regOmah-uOrhAEvhPZx0-155" value="Centrální pobočka" style="text;align=left;verticalAlign=top;spacingLeft=4;spacingRight=4;overflow=hidden;rotatable=0;points=[[0,0.5],[1,0.5]];portConstraint=eastwest;" parent="regOmah-uOrhAEvhPZx0-54" vertex="1">
          <mxGeometry y="78" width="160" height="26" as="geometry" />
        </mxCell>
        <mxCell id="regOmah-uOrhAEvhPZx0-57" value="Úředník" style="swimlane;fontStyle=0;align=center;verticalAlign=top;childLayout=stackLayout;horizontal=1;startSize=26;horizontalStack=0;resizeParent=1;resizeLast=0;collapsible=1;marginBottom=0;rounded=0;shadow=0;strokeWidth=1;" parent="1" vertex="1">
          <mxGeometry x="670" y="828.5" width="160" height="65.5" as="geometry">
            <mxRectangle x="340" y="380" width="170" height="26" as="alternateBounds" />
          </mxGeometry>
        </mxCell>
        <mxCell id="regOmah-uOrhAEvhPZx0-58" value="Přihlašovací údaje" style="text;align=left;verticalAlign=top;spacingLeft=4;spacingRight=4;overflow=hidden;rotatable=0;points=[[0,0.5],[1,0.5]];portConstraint=eastwest;" parent="regOmah-uOrhAEvhPZx0-57" vertex="1">
          <mxGeometry y="26" width="160" height="26" as="geometry" />
        </mxCell>
        <mxCell id="regOmah-uOrhAEvhPZx0-59" value="" style="edgeStyle=orthogonalEdgeStyle;rounded=0;orthogonalLoop=1;jettySize=auto;html=1;endArrow=none;endFill=0;strokeWidth=1;entryX=0.749;entryY=0.453;entryDx=0;entryDy=0;entryPerimeter=0;" parent="1" source="regOmah-uOrhAEvhPZx0-56" target="regOmah-uOrhAEvhPZx0-60" edge="1">
          <mxGeometry relative="1" as="geometry">
            <mxPoint x="590" y="774.5" as="targetPoint" />
            <mxPoint x="669.9999999999998" y="709.5000000000001" as="sourcePoint" />
            <Array as="points">
              <mxPoint x="630" y="709.5" />
              <mxPoint x="630" y="784.5" />
              <mxPoint x="575" y="784.5" />
            </Array>
          </mxGeometry>
        </mxCell>
        <mxCell id="regOmah-uOrhAEvhPZx0-60" value="" style="triangle;whiteSpace=wrap;html=1;fillColor=#FFFFFF;rotation=-180;" parent="1" vertex="1">
          <mxGeometry x="570" y="774.5" width="18" height="17" as="geometry" />
        </mxCell>
        <mxCell id="regOmah-uOrhAEvhPZx0-61" value="" style="endArrow=none;html=1;rounded=0;strokeWidth=1;exitX=0;exitY=0;exitDx=0;exitDy=0;exitPerimeter=0;" parent="1" edge="1">
          <mxGeometry width="50" height="50" relative="1" as="geometry">
            <mxPoint x="670" y="854.5" as="sourcePoint" />
            <mxPoint x="630" y="774.5" as="targetPoint" />
            <Array as="points">
              <mxPoint x="630" y="854.5" />
            </Array>
          </mxGeometry>
        </mxCell>
        <mxCell id="regOmah-uOrhAEvhPZx0-62" value="1" style="resizable=0;align=left;verticalAlign=bottom;labelBackgroundColor=none;fontSize=12;" parent="1" connectable="0" vertex="1">
          <mxGeometry x="357" y="621.9999999999998" as="geometry">
            <mxPoint x="-3" y="15" as="offset" />
          </mxGeometry>
        </mxCell>
        <mxCell id="regOmah-uOrhAEvhPZx0-63" value="0, n" style="resizable=0;align=left;verticalAlign=bottom;labelBackgroundColor=none;fontSize=12;" parent="1" connectable="0" vertex="1">
          <mxGeometry x="394" y="758.9999999999998" as="geometry">
            <mxPoint x="-12" y="-12" as="offset" />
          </mxGeometry>
        </mxCell>
        <mxCell id="regOmah-uOrhAEvhPZx0-64" value="1" style="resizable=0;align=left;verticalAlign=bottom;labelBackgroundColor=none;fontSize=12;" parent="1" connectable="0" vertex="1">
          <mxGeometry x="-143" y="521.9999999999998" as="geometry">
            <mxPoint x="-6" y="9" as="offset" />
          </mxGeometry>
        </mxCell>
        <mxCell id="regOmah-uOrhAEvhPZx0-65" value="Zadává" style="text;html=1;resizable=0;points=[];;align=center;verticalAlign=middle;labelBackgroundColor=none;rounded=0;shadow=0;strokeWidth=1;fontSize=12;" parent="1" vertex="1" connectable="0">
          <mxGeometry x="-95" y="524" as="geometry">
            <mxPoint x="9" as="offset" />
          </mxGeometry>
        </mxCell>
        <mxCell id="regOmah-uOrhAEvhPZx0-66" value="Vybaví" style="text;html=1;resizable=0;points=[];;align=center;verticalAlign=middle;labelBackgroundColor=none;rounded=0;shadow=0;strokeWidth=1;fontSize=12;rotation=0;" parent="1" vertex="1" connectable="0">
          <mxGeometry x="881" y="894" as="geometry">
            <mxPoint x="23" y="-14" as="offset" />
          </mxGeometry>
        </mxCell>
        <mxCell id="regOmah-uOrhAEvhPZx0-67" value="Pracuje" style="text;html=1;resizable=0;points=[];;align=center;verticalAlign=middle;labelBackgroundColor=none;rounded=0;shadow=0;strokeWidth=1;fontSize=12;" parent="1" vertex="1" connectable="0">
          <mxGeometry x="348" y="710" as="geometry">
            <mxPoint x="23" y="-14" as="offset" />
          </mxGeometry>
        </mxCell>
        <mxCell id="regOmah-uOrhAEvhPZx0-68" value="Rozváží" style="text;html=1;resizable=0;points=[];;align=center;verticalAlign=middle;labelBackgroundColor=none;rounded=0;shadow=0;strokeWidth=1;fontSize=12;" parent="1" vertex="1" connectable="0">
          <mxGeometry x="875" y="687.5" as="geometry">
            <mxPoint x="23" y="-14" as="offset" />
          </mxGeometry>
        </mxCell>
        <mxCell id="regOmah-uOrhAEvhPZx0-69" style="edgeStyle=orthogonalEdgeStyle;rounded=0;orthogonalLoop=1;jettySize=auto;html=1;entryX=0;entryY=0.5;entryDx=0;entryDy=0;endArrow=none;endFill=0;" parent="1" source="regOmah-uOrhAEvhPZx0-55" edge="1">
          <mxGeometry relative="1" as="geometry">
            <mxPoint x="1014" y="755.5" as="targetPoint" />
            <Array as="points">
              <mxPoint x="923" y="684" />
              <mxPoint x="923" y="756" />
            </Array>
          </mxGeometry>
        </mxCell>
        <mxCell id="regOmah-uOrhAEvhPZx0-70" style="edgeStyle=orthogonalEdgeStyle;rounded=0;orthogonalLoop=1;jettySize=auto;html=1;entryX=0;entryY=0.5;entryDx=0;entryDy=0;endArrow=none;endFill=0;" parent="1" source="regOmah-uOrhAEvhPZx0-58" target="regOmah-uOrhAEvhPZx0-97" edge="1">
          <mxGeometry relative="1" as="geometry">
            <mxPoint x="913" y="916" as="targetPoint" />
          </mxGeometry>
        </mxCell>
        <mxCell id="regOmah-uOrhAEvhPZx0-73" value="1, n" style="resizable=0;align=left;verticalAlign=bottom;labelBackgroundColor=none;fontSize=12;" parent="1" connectable="0" vertex="1">
          <mxGeometry x="839" y="864.9999999999998" as="geometry">
            <mxPoint x="-6" y="-4" as="offset" />
          </mxGeometry>
        </mxCell>
        <mxCell id="regOmah-uOrhAEvhPZx0-75" value="0, n" style="resizable=0;align=right;verticalAlign=bottom;labelBackgroundColor=none;fontSize=12;" parent="1" connectable="0" vertex="1">
          <mxGeometry x="170" y="510" as="geometry">
            <mxPoint x="4" y="23" as="offset" />
          </mxGeometry>
        </mxCell>
        <mxCell id="regOmah-uOrhAEvhPZx0-77" value="0, n" style="resizable=0;align=left;verticalAlign=bottom;labelBackgroundColor=none;fontSize=12;" parent="1" connectable="0" vertex="1">
          <mxGeometry x="802" y="552.9999999999998" as="geometry">
            <mxPoint x="28" y="116" as="offset" />
          </mxGeometry>
        </mxCell>
        <mxCell id="regOmah-uOrhAEvhPZx0-94" value="Nakládka" style="swimlane;fontStyle=0;align=center;verticalAlign=top;childLayout=stackLayout;horizontal=1;startSize=26;horizontalStack=0;resizeParent=1;resizeLast=0;collapsible=1;marginBottom=0;rounded=0;shadow=0;strokeWidth=1;" parent="1" vertex="1">
          <mxGeometry x="1014" y="690.5" width="167" height="109.5" as="geometry">
            <mxRectangle x="550" y="140" width="160" height="26" as="alternateBounds" />
          </mxGeometry>
        </mxCell>
        <mxCell id="regOmah-uOrhAEvhPZx0-95" value="Počet balíčků" style="text;align=left;verticalAlign=top;spacingLeft=4;spacingRight=4;overflow=hidden;rotatable=0;points=[[0,0.5],[1,0.5]];portConstraint=eastwest;" parent="regOmah-uOrhAEvhPZx0-94" vertex="1">
          <mxGeometry y="26" width="167" height="26" as="geometry" />
        </mxCell>
        <mxCell id="regOmah-uOrhAEvhPZx0-97" value="Příjmové, výdajové dokolady" style="text;align=left;verticalAlign=top;spacingLeft=4;spacingRight=4;overflow=hidden;rotatable=0;points=[[0,0.5],[1,0.5]];portConstraint=eastwest;" parent="regOmah-uOrhAEvhPZx0-94" vertex="1">
          <mxGeometry y="52" width="167" height="26" as="geometry" />
        </mxCell>
        <mxCell id="regOmah-uOrhAEvhPZx0-98" value="Seznam adresátů" style="text;align=left;verticalAlign=top;spacingLeft=4;spacingRight=4;overflow=hidden;rotatable=0;points=[[0,0.5],[1,0.5]];portConstraint=eastwest;" parent="regOmah-uOrhAEvhPZx0-94" vertex="1">
          <mxGeometry y="78" width="167" height="26" as="geometry" />
        </mxCell>
        <mxCell id="regOmah-uOrhAEvhPZx0-99" value="1" style="resizable=0;align=left;verticalAlign=bottom;labelBackgroundColor=none;fontSize=12;" parent="1" connectable="0" vertex="1">
          <mxGeometry x="1001" y="731.9999999999998" as="geometry">
            <mxPoint x="-3" y="15" as="offset" />
          </mxGeometry>
        </mxCell>
        <mxCell id="regOmah-uOrhAEvhPZx0-100" value="1" style="resizable=0;align=left;verticalAlign=bottom;labelBackgroundColor=none;fontSize=12;" parent="1" connectable="0" vertex="1">
          <mxGeometry x="1002" y="769.4999999999998" as="geometry">
            <mxPoint x="-3" y="15" as="offset" />
          </mxGeometry>
        </mxCell>
        <mxCell id="regOmah-uOrhAEvhPZx0-104" value="Přijímá" style="text;html=1;resizable=0;points=[];;align=center;verticalAlign=middle;labelBackgroundColor=none;rounded=0;shadow=0;strokeWidth=1;fontSize=12;" parent="1" vertex="1" connectable="0">
          <mxGeometry x="200" y="522" as="geometry">
            <mxPoint x="9" as="offset" />
          </mxGeometry>
        </mxCell>
        <mxCell id="regOmah-uOrhAEvhPZx0-105" value="Objednávka" style="swimlane;fontStyle=0;align=center;verticalAlign=top;childLayout=stackLayout;horizontal=1;startSize=26;horizontalStack=0;resizeParent=1;resizeLast=0;collapsible=1;marginBottom=0;rounded=0;shadow=0;strokeWidth=1;" parent="1" vertex="1">
          <mxGeometry x="-15" y="409" width="160" height="171" as="geometry">
            <mxRectangle x="550" y="140" width="160" height="26" as="alternateBounds" />
          </mxGeometry>
        </mxCell>
        <mxCell id="regOmah-uOrhAEvhPZx0-106" value="Číslo objednávky" style="text;align=left;verticalAlign=top;spacingLeft=4;spacingRight=4;overflow=hidden;rotatable=0;points=[[0,0.5],[1,0.5]];portConstraint=eastwest;" parent="regOmah-uOrhAEvhPZx0-105" vertex="1">
          <mxGeometry y="26" width="160" height="26" as="geometry" />
        </mxCell>
        <mxCell id="regOmah-uOrhAEvhPZx0-107" value="Typ objednávky" style="text;align=left;verticalAlign=top;spacingLeft=4;spacingRight=4;overflow=hidden;rotatable=0;points=[[0,0.5],[1,0.5]];portConstraint=eastwest;rounded=0;shadow=0;html=0;" parent="regOmah-uOrhAEvhPZx0-105" vertex="1">
          <mxGeometry y="52" width="160" height="26" as="geometry" />
        </mxCell>
        <mxCell id="regOmah-uOrhAEvhPZx0-108" value="Cena" style="text;align=left;verticalAlign=top;spacingLeft=4;spacingRight=4;overflow=hidden;rotatable=0;points=[[0,0.5],[1,0.5]];portConstraint=eastwest;rounded=0;shadow=0;html=0;" parent="regOmah-uOrhAEvhPZx0-105" vertex="1">
          <mxGeometry y="78" width="160" height="26" as="geometry" />
        </mxCell>
        <mxCell id="regOmah-uOrhAEvhPZx0-109" value="Způsob platby" style="text;align=left;verticalAlign=top;spacingLeft=4;spacingRight=4;overflow=hidden;rotatable=0;points=[[0,0.5],[1,0.5]];portConstraint=eastwest;" parent="regOmah-uOrhAEvhPZx0-105" vertex="1">
          <mxGeometry y="104" width="160" height="26" as="geometry" />
        </mxCell>
        <mxCell id="regOmah-uOrhAEvhPZx0-28" value="Kód pro vyzvednutí" style="text;align=left;verticalAlign=top;spacingLeft=4;spacingRight=4;overflow=hidden;rotatable=0;points=[[0,0.5],[1,0.5]];portConstraint=eastwest;" parent="regOmah-uOrhAEvhPZx0-105" vertex="1">
          <mxGeometry y="130" width="160" height="26" as="geometry" />
        </mxCell>
        <mxCell id="regOmah-uOrhAEvhPZx0-110" style="edgeStyle=orthogonalEdgeStyle;rounded=0;orthogonalLoop=1;jettySize=auto;html=1;endArrow=none;endFill=0;" parent="1" edge="1">
          <mxGeometry relative="1" as="geometry">
            <mxPoint x="268" y="534" as="targetPoint" />
            <mxPoint x="146" y="534" as="sourcePoint" />
          </mxGeometry>
        </mxCell>
        <mxCell id="regOmah-uOrhAEvhPZx0-111" value="1" style="resizable=0;align=left;verticalAlign=bottom;labelBackgroundColor=none;fontSize=12;" parent="1" connectable="0" vertex="1">
          <mxGeometry x="250" y="514.4999999999998" as="geometry">
            <mxPoint x="-3" y="15" as="offset" />
          </mxGeometry>
        </mxCell>
        <mxCell id="regOmah-uOrhAEvhPZx0-112" value="0,n" style="resizable=0;align=left;verticalAlign=bottom;labelBackgroundColor=none;fontSize=12;" parent="1" connectable="0" vertex="1">
          <mxGeometry x="-40" y="515.4999999999998" as="geometry">
            <mxPoint x="-3" y="15" as="offset" />
          </mxGeometry>
        </mxCell>
        <mxCell id="regOmah-uOrhAEvhPZx0-113" value="0,n" style="resizable=0;align=left;verticalAlign=bottom;labelBackgroundColor=none;fontSize=12;" parent="1" connectable="0" vertex="1">
          <mxGeometry x="-245" y="579.9981818181818" as="geometry">
            <mxPoint x="-17" y="22" as="offset" />
          </mxGeometry>
        </mxCell>
        <mxCell id="regOmah-uOrhAEvhPZx0-114" value="" style="endArrow=none;html=1;rounded=0;exitX=0.5;exitY=0;exitDx=0;exitDy=0;endFill=0;endSize=6;startArrow=diamond;startFill=0;startSize=17;entryX=0.01;entryY=0.021;entryDx=0;entryDy=0;entryPerimeter=0;" parent="1" source="regOmah-uOrhAEvhPZx0-105" target="regOmah-uOrhAEvhPZx0-25" edge="1">
          <mxGeometry width="50" height="50" relative="1" as="geometry">
            <mxPoint x="503" y="490" as="sourcePoint" />
            <mxPoint x="570" y="350" as="targetPoint" />
            <Array as="points">
              <mxPoint x="65" y="350" />
            </Array>
          </mxGeometry>
        </mxCell>
        <mxCell id="regOmah-uOrhAEvhPZx0-115" value="Náleží" style="text;html=1;resizable=0;points=[];;align=center;verticalAlign=middle;labelBackgroundColor=none;rounded=0;shadow=0;strokeWidth=1;fontSize=12;" parent="1" vertex="1" connectable="0">
          <mxGeometry x="330.0047368421052" y="310.00368421052633" as="geometry">
            <mxPoint x="-29" y="26" as="offset" />
          </mxGeometry>
        </mxCell>
        <mxCell id="regOmah-uOrhAEvhPZx0-116" value="0, n" style="resizable=0;align=right;verticalAlign=bottom;labelBackgroundColor=none;fontSize=12;" parent="1" connectable="0" vertex="1">
          <mxGeometry x="550" y="330" as="geometry">
            <mxPoint x="4" y="23" as="offset" />
          </mxGeometry>
        </mxCell>
        <mxCell id="regOmah-uOrhAEvhPZx0-117" value="1" style="resizable=0;align=left;verticalAlign=bottom;labelBackgroundColor=none;fontSize=12;" parent="1" connectable="0" vertex="1">
          <mxGeometry x="65" y="359.9999999999998" as="geometry">
            <mxPoint x="-15" y="27" as="offset" />
          </mxGeometry>
        </mxCell>
        <mxCell id="regOmah-uOrhAEvhPZx0-128" style="edgeStyle=orthogonalEdgeStyle;rounded=0;orthogonalLoop=1;jettySize=auto;html=1;endArrow=none;endFill=0;" parent="1" edge="1">
          <mxGeometry relative="1" as="geometry">
            <mxPoint x="268" y="568.5" as="targetPoint" />
            <mxPoint x="146" y="568.5" as="sourcePoint" />
          </mxGeometry>
        </mxCell>
        <mxCell id="regOmah-uOrhAEvhPZx0-130" value="Odesílá" style="text;html=1;resizable=0;points=[];;align=center;verticalAlign=middle;labelBackgroundColor=none;rounded=0;shadow=0;strokeWidth=1;fontSize=12;" parent="1" vertex="1" connectable="0">
          <mxGeometry x="200" y="562" as="geometry">
            <mxPoint x="9" as="offset" />
          </mxGeometry>
        </mxCell>
        <mxCell id="regOmah-uOrhAEvhPZx0-131" value="1" style="resizable=0;align=left;verticalAlign=bottom;labelBackgroundColor=none;fontSize=12;" parent="1" connectable="0" vertex="1">
          <mxGeometry x="250" y="552.9999999999998" as="geometry">
            <mxPoint x="-3" y="15" as="offset" />
          </mxGeometry>
        </mxCell>
        <mxCell id="regOmah-uOrhAEvhPZx0-132" value="0, n" style="resizable=0;align=right;verticalAlign=bottom;labelBackgroundColor=none;fontSize=12;" parent="1" connectable="0" vertex="1">
          <mxGeometry x="170" y="544" as="geometry">
            <mxPoint x="4" y="23" as="offset" />
          </mxGeometry>
        </mxCell>
        <mxCell id="regOmah-uOrhAEvhPZx0-133" value="Přijíma" style="text;html=1;resizable=0;points=[];;align=center;verticalAlign=middle;labelBackgroundColor=none;rounded=0;shadow=0;strokeWidth=1;fontSize=12;" parent="1" vertex="1" connectable="0">
          <mxGeometry x="-95" y="553" as="geometry">
            <mxPoint x="9" as="offset" />
          </mxGeometry>
        </mxCell>
        <mxCell id="regOmah-uOrhAEvhPZx0-134" value="0,n" style="resizable=0;align=left;verticalAlign=bottom;labelBackgroundColor=none;fontSize=12;" parent="1" connectable="0" vertex="1">
          <mxGeometry x="-40" y="549.4999999999998" as="geometry">
            <mxPoint x="-3" y="15" as="offset" />
          </mxGeometry>
        </mxCell>
        <mxCell id="regOmah-uOrhAEvhPZx0-135" style="edgeStyle=orthogonalEdgeStyle;rounded=0;orthogonalLoop=1;jettySize=auto;html=1;endArrow=none;endFill=0;" parent="1" edge="1">
          <mxGeometry relative="1" as="geometry">
            <mxPoint x="-15.000000000000227" y="568.5" as="targetPoint" />
            <mxPoint x="-150.00000000000023" y="568.5" as="sourcePoint" />
          </mxGeometry>
        </mxCell>
        <mxCell id="regOmah-uOrhAEvhPZx0-136" value="1" style="resizable=0;align=left;verticalAlign=bottom;labelBackgroundColor=none;fontSize=12;" parent="1" connectable="0" vertex="1">
          <mxGeometry x="-133" y="531.9999999999998" as="geometry">
            <mxPoint x="-14" y="35" as="offset" />
          </mxGeometry>
        </mxCell>
        <mxCell id="regOmah-uOrhAEvhPZx0-154" value="1" style="resizable=0;align=right;verticalAlign=bottom;labelBackgroundColor=none;fontSize=12;" parent="1" connectable="0" vertex="1">
          <mxGeometry x="1080" y="660" as="geometry">
            <mxPoint x="4" y="23" as="offset" />
          </mxGeometry>
        </mxCell>
        <mxCell id="Ka-3wz8nUxAZ7EdSLQp2-2" value="" style="endArrow=none;shadow=0;strokeWidth=1;rounded=0;endFill=0;edgeStyle=elbowEdgeStyle;elbow=vertical;entryX=0.999;entryY=-0.031;entryDx=0;entryDy=0;entryPerimeter=0;" parent="1" target="regOmah-uOrhAEvhPZx0-12" edge="1">
          <mxGeometry x="0.5" y="41" relative="1" as="geometry">
            <mxPoint x="280" y="616" as="sourcePoint" />
            <mxPoint x="352.77" y="854" as="targetPoint" />
            <mxPoint x="-40" y="32" as="offset" />
            <Array as="points">
              <mxPoint x="280" y="854" />
              <mxPoint x="280" y="941" />
            </Array>
          </mxGeometry>
        </mxCell>
        <mxCell id="Ka-3wz8nUxAZ7EdSLQp2-3" value="0,n" style="resizable=0;align=right;verticalAlign=bottom;labelBackgroundColor=none;fontSize=12;" parent="Ka-3wz8nUxAZ7EdSLQp2-2" connectable="0" vertex="1">
          <mxGeometry x="1" relative="1" as="geometry">
            <mxPoint x="30" y="-3" as="offset" />
          </mxGeometry>
        </mxCell>
        <mxCell id="Ka-3wz8nUxAZ7EdSLQp2-4" value="Má" style="text;html=1;resizable=0;points=[];;align=center;verticalAlign=middle;labelBackgroundColor=none;rounded=0;shadow=0;strokeWidth=1;fontSize=12;" parent="Ka-3wz8nUxAZ7EdSLQp2-2" vertex="1" connectable="0">
          <mxGeometry x="0.5" y="49" relative="1" as="geometry">
            <mxPoint x="100" y="-213" as="offset" />
          </mxGeometry>
        </mxCell>
        <mxCell id="Ka-3wz8nUxAZ7EdSLQp2-5" value="1" style="resizable=0;align=left;verticalAlign=bottom;labelBackgroundColor=none;fontSize=12;" parent="1" connectable="0" vertex="1">
          <mxGeometry x="290" y="621.9999999999998" as="geometry">
            <mxPoint x="-3" y="15" as="offset" />
          </mxGeometry>
        </mxCell>
      </root>
    </mxGraphModel>
  </diagram>
</mxfile>
